<svg width="115" height="20" viewBox="0 0 115 20" fill="none" xmlns="http://www.w3.org/2000/svg">
<path d="M24.2362 0.0579834H21.2744V15.7931H31.9876V12.9407H24.2362V0.0579834Z" fill="#125BC9"/>
<path d="M41.0333 5.39763C40.8313 5.20114 40.614 5.02106 40.3834 4.85911C40.0281 4.61908 39.6466 4.42022 39.2463 4.26636C38.7386 4.0737 38.1989 3.97936 37.656 3.98838C36.916 3.98259 36.1828 4.13034 35.5029 4.42229C34.8479 4.70682 34.258 5.1221 33.7692 5.64267C33.26 6.19196 32.8649 6.83689 32.6069 7.54006C32.049 9.13236 32.049 10.867 32.6069 12.4593C32.8651 13.1627 33.2601 13.8079 33.7692 14.3577C34.2581 14.8779 34.848 15.2928 35.5029 15.5771C36.1827 15.8695 36.9159 16.0173 37.656 16.011C38.201 16.0198 38.7424 15.9211 39.2492 15.7204C39.6539 15.5586 40.0371 15.3474 40.3902 15.0919C40.6203 14.9195 40.8355 14.7281 41.0333 14.5194V15.7921H43.7772V4.20631H41.0333V5.39763ZM40.21 12.6085C39.6599 13.1993 38.9674 13.486 38.0928 13.486C37.1591 13.486 36.4346 13.1954 35.8767 12.6075C35.3188 12.0196 35.0428 11.1431 35.0428 10.0002C35.0428 8.85729 35.3237 7.97882 35.8767 7.39188C36.4298 6.80493 37.1591 6.5134 38.0928 6.5134C38.9645 6.5134 39.6599 6.80396 40.21 7.39188C40.7602 7.97979 41.0333 8.85632 41.0333 10.0002C41.0333 11.144 40.7563 12.0215 40.21 12.6085Z" fill="#125BC9"/>
<path d="M54.5844 6.59184V4.2063H45.2912V6.73131H50.995L45.0723 13.4075V15.7931H54.8033V13.2681H48.6627L54.5844 6.59184Z" fill="#125BC9"/>
<path d="M65.5338 5.72499C64.9923 5.18593 64.3534 4.7547 63.6509 4.45425C62.9213 4.14679 62.1375 3.9884 61.3457 3.9884C60.554 3.9884 59.7702 4.14679 59.0406 4.45425C58.3383 4.75448 57.6996 5.18574 57.1587 5.72499C56.6169 6.27108 56.1889 6.9193 55.8996 7.63206C55.2939 9.15238 55.2939 10.847 55.8996 12.3673C56.1889 13.0801 56.6169 13.7283 57.1587 14.2744C57.6999 14.8138 58.3389 15.245 59.0415 15.5451C59.7685 15.8559 60.5513 16.0144 61.3419 16.011C61.8575 16.0148 62.372 15.9618 62.876 15.8531C63.3144 15.7582 63.7416 15.6176 64.1507 15.4337C64.5088 15.2719 64.8465 15.0684 65.157 14.8274C65.4252 14.6164 65.681 14.39 65.9231 14.1494C66.4384 13.6028 66.8462 12.9641 67.1251 12.2666L67.251 11.9566H64.3899L64.3231 12.0593C64.1413 12.3354 63.9117 12.5768 63.6451 12.7722C63.3681 12.9869 63.0579 13.155 62.7269 13.27C62.2818 13.4239 61.8127 13.4971 61.3419 13.486C60.97 13.4871 60.6006 13.4252 60.2493 13.3029C59.543 13.0541 58.9529 12.5542 58.5912 11.8985C58.4334 11.6124 58.3145 11.3066 58.2377 10.9891H67.2452V10.0002C67.2511 9.1887 67.097 8.38401 66.7919 7.63206C66.5028 6.91938 66.0752 6.27116 65.5338 5.72499ZM58.3607 8.67907C58.4393 8.41245 58.553 8.15743 58.6987 7.92069C58.8822 7.6236 59.1189 7.3629 59.397 7.15166C59.6736 6.94219 59.9833 6.78047 60.3133 6.6732C60.6456 6.56621 60.9927 6.51228 61.3419 6.51339C62.1268 6.49341 62.8912 6.76537 63.4872 7.27661C63.7361 7.49316 63.9401 7.75641 64.0877 8.05145C64.19 8.25491 64.2727 8.46766 64.3347 8.68682L58.3607 8.67907Z" fill="#125BC9"/>
<path d="M72.9275 4.34478C72.5756 4.53881 72.2443 4.76791 71.9386 5.02857C71.7818 5.16903 71.6373 5.32262 71.5066 5.48767V4.20627H68.7627V15.7931H71.5066V9.49069C71.5009 9.08142 71.5732 8.67481 71.7197 8.29259C71.8502 7.95593 72.0517 7.65134 72.3105 7.39959C72.5703 7.15249 72.8755 6.9581 73.2093 6.82717C73.5692 6.68846 73.952 6.61912 74.3377 6.62281H75.9842V3.98835H74.4471C73.9183 3.97373 73.3947 4.09654 72.9275 4.34478V4.34478Z" fill="#125BC9"/>
<path d="M87.2844 5.64172C86.7966 5.12241 86.2084 4.70755 85.5555 4.42232C84.8753 4.13029 84.1418 3.98254 83.4015 3.98841C82.8545 3.97741 82.3106 4.07213 81.7995 4.26735C81.4032 4.42255 81.0254 4.62135 80.6731 4.8601C80.4434 5.02252 80.2265 5.20222 80.0242 5.39765V4.20633H77.2773V19.9414H80.0203V14.6144C80.2205 14.8157 80.438 14.9992 80.6702 15.1626C81.022 15.4002 81.4008 15.5953 81.7985 15.7437C82.3105 15.9306 82.8527 16.0209 83.3976 16.0101C84.138 16.0164 84.8715 15.8686 85.5517 15.5762C86.2061 15.2916 86.7956 14.8767 87.2844 14.3567C87.7941 13.8075 88.1892 13.1621 88.4467 12.4584C89.0046 10.8661 89.0046 9.13142 88.4467 7.53911C88.1884 6.8361 87.7933 6.19123 87.2844 5.64172V5.64172ZM85.1768 12.6075C84.6199 13.1984 83.8945 13.486 82.9618 13.486C82.0901 13.486 81.3947 13.1955 80.8445 12.6085C80.2944 12.0216 80.0203 11.1431 80.0203 10.0002C80.0203 8.85732 80.2983 7.97884 80.8445 7.3919C81.3908 6.80496 82.0872 6.51342 82.9618 6.51342C83.8945 6.51342 84.6199 6.80398 85.1768 7.39286C85.7338 7.98174 86.0108 8.85635 86.0108 10.0002C86.0108 11.1441 85.7309 12.0206 85.1768 12.6075V12.6075Z" fill="#125BC9"/>
<path d="M98.5655 5.39761C98.3636 5.20113 98.1462 5.02105 97.9156 4.8591C97.5603 4.61904 97.1788 4.42017 96.7786 4.26635C96.2712 4.07378 95.7318 3.97945 95.1892 3.98837C94.4489 3.9825 93.7154 4.13025 93.0351 4.42228C92.3804 4.70728 91.7906 5.1225 91.3014 5.64266C90.7918 6.19167 90.3967 6.83668 90.1391 7.54005C89.5799 9.13213 89.5799 10.8672 90.1391 12.4593C90.3969 13.1629 90.792 13.8082 91.3014 14.3577C91.7905 14.8776 92.3804 15.2925 93.0351 15.5771C93.7153 15.8696 94.4488 16.0173 95.1892 16.011C95.7339 16.0197 96.275 15.921 96.7815 15.7204C97.186 15.5582 97.5691 15.3471 97.9224 15.0918C98.1526 14.9195 98.3677 14.728 98.5655 14.5194V15.7921H101.309V4.2063H98.5655V5.39761ZM97.7423 12.6085C97.1921 13.1993 96.4996 13.486 95.625 13.486C94.6913 13.486 93.9669 13.1954 93.409 12.6075C92.8511 12.0196 92.576 11.1431 92.576 10.0002C92.576 8.85728 92.8559 7.9788 93.4099 7.39283C93.9639 6.80685 94.6913 6.51339 95.625 6.51339C96.4967 6.51339 97.1921 6.80395 97.7423 7.39186C98.2924 7.97977 98.5655 8.85631 98.5655 10.0002C98.5655 11.144 98.2885 12.0215 97.7423 12.6085Z" fill="#125BC9"/>
<path d="M111.067 4.2063L108.447 13.1586H107.588L105.186 4.2063H102.316L105.496 15.7931H107.653L106.344 19.9414H109.22L113.941 4.2063H111.067Z" fill="#125BC9"/>
<path d="M113.838 18.5059V18.4885C114.016 18.4352 114.14 18.3103 114.14 18.1495C114.142 18.0888 114.13 18.0284 114.106 17.9729C114.081 17.9174 114.044 17.8682 113.998 17.8289C113.891 17.7659 113.767 17.7214 113.49 17.7214C113.302 17.7186 113.114 17.7336 112.929 17.7659V19.2285H113.268V18.6396H113.428C113.615 18.6396 113.705 18.7113 113.731 18.872C113.751 18.996 113.79 19.1162 113.847 19.2285H114.212C114.156 19.1135 114.12 18.9896 114.106 18.8623C114.065 18.6667 113.984 18.5582 113.838 18.5059ZM113.436 18.3994H113.276V17.9771C113.338 17.9642 113.401 17.9584 113.463 17.9597C113.677 17.9597 113.775 18.0488 113.775 18.1824C113.779 18.3364 113.628 18.3994 113.44 18.3994H113.436Z" fill="#125BC9"/>
<path d="M113.503 16.9999C113.212 17.005 112.93 17.096 112.692 17.2611C112.453 17.4263 112.268 17.6584 112.161 17.9283C112.054 18.1981 112.029 18.4935 112.09 18.7774C112.15 19.0613 112.293 19.321 112.501 19.5237C112.709 19.7265 112.972 19.8632 113.257 19.9168C113.543 19.9704 113.837 19.9384 114.104 19.8248C114.372 19.7113 114.599 19.5212 114.759 19.2786C114.918 19.036 115.002 18.7517 115 18.4614C114.998 18.2671 114.957 18.0751 114.881 17.8964C114.805 17.7177 114.694 17.5558 114.555 17.4201C114.415 17.2843 114.251 17.1773 114.07 17.1052C113.89 17.0331 113.697 16.9973 113.503 16.9999V16.9999ZM113.511 19.6295C113.207 19.622 112.918 19.4962 112.706 19.279C112.493 19.0618 112.373 18.7702 112.372 18.4661C112.371 18.1621 112.489 17.8697 112.7 17.6508C112.911 17.432 113.199 17.3041 113.503 17.2943C114.154 17.2943 114.625 17.8203 114.625 18.4702C114.625 19.12 114.154 19.6295 113.511 19.6295V19.6295Z" fill="#125BC9"/>
<path d="M15.5472 9.79418L14.4692 7.19168L7.84236 9.93655L13.0658 4.71316L11.0744 2.72182L5.85102 7.94424L8.59589 1.31839L5.9934 0.240387L2.81655 7.90938V0.126099H0V12.9701V15.7876H2.81655H15.6615V12.9701H7.8782L15.5472 9.79418Z" fill="#125BC9"/>
</svg>
