<svg width="190" height="39" viewBox="0 0 190 39" fill="none" xmlns="http://www.w3.org/2000/svg">
<g clip-path="url(#clip0_2823_36821)">
<path fill-rule="evenodd" clip-rule="evenodd" d="M0.522584 3.78222C1.40398 1.64815 3.61612 0.140381 5.93364 0.144596C23.3668 0.138271 40.8 0.146706 58.2332 0.140381C59.7451 0.10664 61.2592 0.669682 62.3748 1.69243C63.6527 2.83539 64.3802 4.54349 64.3444 6.25581C64.338 12.9383 64.357 19.619 64.3359 26.3016C64.3233 29.3214 61.6852 32.0164 58.6676 32.0986C52.3096 32.126 45.9496 32.1008 39.5916 32.1113C40.4457 34.2159 41.3103 36.3183 42.1643 38.425C38.377 36.3394 34.6276 34.1799 30.8192 32.1387C22.4558 32.0649 14.0862 32.145 5.7207 32.0965C2.70722 32.0122 0.0797418 29.3193 0.0628552 26.3058C0.0375664 19.7645 0.0628552 13.2211 0.0501697 6.67756C0.0270226 5.69488 0.119775 4.6911 0.522584 3.78222Z" fill="#9B5C8F"/>
<path fill-rule="evenodd" clip-rule="evenodd" d="M26.0931 4.26932C27.059 3.24235 28.8915 3.57554 29.6042 4.73747C29.9901 5.34669 30.0239 6.16088 29.7139 6.81039C28.3706 9.45267 27.8097 12.3965 27.293 15.2897C26.6815 19.0623 26.1733 22.8832 26.3715 26.7128C26.4263 27.6892 25.954 28.8743 24.9059 29.1021C23.9148 29.3234 23.0122 28.674 22.3901 27.9739C19.5433 24.9119 17.9323 20.9453 16.7704 16.9873C15.5958 19.3048 14.417 21.6223 13.2782 23.9588C12.4811 25.5382 11.6397 27.1493 10.3661 28.4041C9.82832 28.9376 8.9194 29.4204 8.22566 28.8721C7.18182 27.9591 6.92457 26.5041 6.48164 25.2536C4.80097 19.4566 3.84781 13.4825 2.87151 7.5358C2.64796 6.54468 3.06337 5.35744 4.05236 4.961C4.85154 4.66155 5.87438 4.61917 6.55553 5.20772C7.03 5.63137 7.16073 6.28741 7.24928 6.8863C7.93462 11.4897 8.7507 16.0784 9.86208 20.5995C11.7663 16.9894 13.6599 13.3729 15.5578 9.75844C15.8404 9.22914 16.1778 8.69773 16.6966 8.36876C17.3903 7.9236 18.4194 7.95545 18.9993 8.57753C19.4864 9.08786 19.6487 9.79851 19.7837 10.4691C20.351 13.4572 21.1186 16.4158 22.2341 19.2479C22.7149 14.9798 23.3032 10.6589 24.8616 6.62903C25.2138 5.81716 25.5238 4.95889 26.0931 4.26932ZM36.7972 6.55523C38.847 6.30428 41.0591 6.98541 42.4551 8.54379C43.5938 9.83225 44.2328 11.5043 44.4479 13.1957C44.7958 16.089 44.2749 19.096 42.8832 21.6624C42.0966 23.1258 41.0675 24.5282 39.6167 25.3885C37.491 26.679 34.64 26.5209 32.586 25.1587C30.9454 24.0347 30.0239 22.12 29.6485 20.2115C28.8936 15.8929 30.1842 11.0785 33.4549 8.06299C34.3933 7.25323 35.5636 6.70495 36.7972 6.55523ZM37.2253 10.9984C36.2405 11.3253 35.6184 12.2278 35.0891 13.0671C33.7627 15.2033 33.3789 18.0206 34.446 20.3443C34.7264 20.9559 35.1777 21.599 35.8884 21.7277C36.6433 21.8521 37.3455 21.4198 37.8959 20.9496C39.1085 19.9099 39.7116 18.3474 40.0047 16.8144C40.3337 15.0683 40.165 13.1346 39.1401 11.6395C38.7289 11.03 37.9212 10.7538 37.2253 10.9984ZM53.2435 6.55944C55.2469 6.31061 57.421 6.92848 58.8233 8.42359C60.078 9.77742 60.7571 11.5889 60.949 13.4087C61.2442 16.2049 60.7297 19.096 59.4032 21.5822C58.6061 23.0857 57.5539 24.5324 56.0608 25.4075C54.0196 26.6306 51.3246 26.5188 49.3022 25.3126C47.9358 24.4902 47.0269 23.0857 46.5039 21.6096C45.0699 17.0948 46.2804 11.7829 49.5848 8.37509C50.5759 7.40928 51.8623 6.73236 53.2435 6.55944ZM53.6779 11.0047C52.6025 11.3885 51.9572 12.4155 51.3984 13.3476C50.1879 15.4816 49.8906 18.2293 50.985 20.4709C51.2803 21.0908 51.8032 21.715 52.5434 21.7488C53.349 21.7783 54.0427 21.268 54.6016 20.7408C55.8183 19.5408 56.375 17.8265 56.5691 16.1628C56.7694 14.6044 56.51 12.93 55.6032 11.6226C55.1878 11.013 54.3717 10.7538 53.6779 11.0047Z" fill="white"/>
<path fill-rule="evenodd" clip-rule="evenodd" d="M75.1718 7.15203C76.9199 6.76612 78.7588 6.81884 80.4985 7.22351C80.5048 8.64714 80.4985 10.0706 80.5027 11.494C79.0751 11.1503 77.4787 10.8276 76.0933 11.4961C74.4379 12.3059 73.5332 14.1721 73.5164 15.9646C73.4236 17.7507 74.0183 19.7392 75.5998 20.7429C77.0528 21.7045 78.9085 21.5 80.5027 21.0424C80.4985 22.4658 80.5027 23.8892 80.4985 25.3126C78.3897 25.9242 76.0849 25.8482 74.0267 25.0827C71.5552 24.1549 69.5877 22.0208 68.8349 19.4924C68.2655 17.5735 68.1917 15.4943 68.6536 13.5437C69.3979 10.4143 72.0402 7.85003 75.1718 7.15203ZM88.0184 6.94115C90.1693 6.70054 92.51 7.03183 94.2477 8.41096C95.9241 9.71186 96.7613 11.8103 97.0521 13.86C97.3476 16.1037 97.2822 18.4381 96.5884 20.6058C95.9979 22.4468 94.7622 24.1486 92.9824 24.9858C91.1731 25.8378 89.0643 25.8946 87.139 25.4602C85.355 25.0596 83.784 23.8765 82.8983 22.2802C81.6731 20.1271 81.4496 17.5714 81.5445 15.1421C81.6457 13.046 82.175 10.8613 83.5836 9.24603C84.6886 7.93227 86.325 7.13305 88.0184 6.94115ZM88.6805 11.0237C87.7569 11.2578 87.2339 12.1688 87.0019 13.0271C86.5443 14.7244 86.6224 16.5107 86.7384 18.2483C86.8501 19.1867 86.9513 20.2242 87.6198 20.9559C88.5076 21.966 90.2916 21.8289 91.1077 20.7956C91.6476 20.1335 91.7867 19.2605 91.9112 18.4423C92.0841 16.9789 92.1284 15.4899 91.9048 14.0308C91.7488 13.1557 91.5063 12.2318 90.8631 11.5783C90.3106 11.0047 89.4376 10.8297 88.6805 11.0237ZM173.04 7.22583C174.866 6.74714 176.802 6.81673 178.638 7.20896C178.68 8.63639 178.647 10.0663 178.657 11.494C177.259 11.1587 175.716 10.8443 174.347 11.4476C172.774 12.1646 171.821 13.8516 171.698 15.5365C171.505 17.4259 172.025 19.5979 173.691 20.7028C175.15 21.7066 177.042 21.5105 178.657 21.0424C178.638 22.4763 178.699 23.9124 178.623 25.3442C176.376 25.9284 173.927 25.8504 171.785 24.9204C169.431 23.8955 167.607 21.7699 166.93 19.2984C166.412 17.4006 166.353 15.3594 166.831 13.4467C167.58 10.4565 170.066 8.00186 173.039 7.22583H173.04ZM99.8907 7.36712C101.924 7.3629 103.959 7.3629 105.993 7.36712C106.729 10.6652 107.43 13.9739 108.041 17.2973C108.623 13.9591 109.405 10.6608 110.192 7.36712C112.278 7.3629 114.363 7.36501 116.451 7.36501C117.261 13.3349 118.066 19.3048 118.87 25.2747C117.273 25.2767 115.679 25.2768 114.083 25.2747C113.64 21.1857 113.247 17.0928 112.779 13.006C111.812 17.1012 110.791 21.1837 109.804 25.2747C108.716 25.2789 107.625 25.2768 106.537 25.2747C105.494 21.1794 104.467 17.078 103.414 12.9849C103.003 17.0822 102.596 21.1794 102.181 25.2768C100.656 25.2747 99.1293 25.2789 97.6048 25.2747C98.364 19.3048 99.1293 13.337 99.8907 7.36712ZM121.78 7.36501C123.815 7.36712 125.85 7.36079 127.887 7.36712C128.621 10.6608 129.314 13.9633 129.93 17.2825C130.521 13.9505 131.294 10.6547 132.083 7.36501C134.16 7.36501 136.239 7.36501 138.316 7.36501C139.124 13.3349 139.93 19.3048 140.733 25.2747C139.139 25.2789 137.545 25.2725 135.95 25.2789C135.508 21.1879 135.094 17.097 134.658 13.006C133.663 17.0949 132.686 21.1879 131.691 25.2768C130.603 25.2747 129.517 25.2768 128.431 25.2768C127.387 21.1773 126.349 17.0759 125.308 12.9743C124.89 17.0738 124.487 21.1752 124.072 25.2747C122.545 25.2767 121.021 25.2768 119.494 25.2747C120.255 19.3048 121.018 13.3349 121.78 7.36501ZM142.096 7.42385C145.362 7.35025 148.633 7.41352 151.901 7.39243C151.908 8.66401 151.897 9.93328 151.908 11.2051C150.259 11.2241 148.609 11.2072 146.96 11.2156C146.958 12.308 146.958 13.4003 146.96 14.4926C148.388 14.4969 149.816 14.4926 151.243 14.4948C151.243 15.7324 151.245 16.9683 151.243 18.204C149.816 18.2061 148.388 18.2019 146.96 18.2061C146.958 19.2984 146.958 20.3929 146.96 21.4852C148.616 21.4894 150.273 21.4852 151.929 21.4873C151.929 22.7589 151.931 24.0305 151.929 25.3021C148.66 25.3042 145.391 25.3042 142.125 25.3021C142.104 19.3428 142.161 13.3813 142.095 7.42406L142.096 7.42385ZM153.314 7.36501C155.36 7.37345 157.405 7.34814 159.451 7.37766C161.378 7.43861 163.421 7.91962 164.86 9.28399C166.159 10.4923 166.608 12.464 166.104 14.1447C165.705 15.5112 164.68 16.6204 163.4 17.2193C164.681 19.9079 165.973 22.588 167.253 25.2747C165.551 25.2767 163.849 25.2747 162.15 25.2768C160.815 22.5354 159.522 19.7708 158.171 17.0379C158.137 19.7835 158.166 22.5291 158.156 25.2747C156.54 25.2767 154.927 25.2768 153.314 25.2747C153.312 19.3048 153.312 13.3349 153.314 7.36501ZM158.133 10.8086C158.128 12.2318 158.128 13.6576 158.133 15.0831C159.008 15.0219 159.959 14.9882 160.703 14.4589C161.559 13.841 161.467 12.5188 160.927 11.7217C160.258 10.9033 159.096 10.8867 158.133 10.8086H158.133ZM180.013 7.36923C183.275 7.36058 186.538 7.36923 189.8 7.36501C189.802 8.63871 189.8 9.9124 189.8 11.1861C188.145 11.1882 186.489 11.1861 184.834 11.1882C184.832 12.2784 184.832 13.3687 184.832 14.461C186.259 14.4652 187.687 14.4589 189.115 14.4631C189.115 15.701 189.117 16.9409 189.115 18.1788C187.687 18.1787 186.261 18.1788 184.836 18.1788C184.83 19.2711 184.832 20.3633 184.834 21.4578C186.496 21.462 188.157 21.4578 189.821 21.4599C189.821 22.7315 189.821 24.0031 189.819 25.2768C186.552 25.2767 183.284 25.2768 180.017 25.2747C180.011 19.3069 180.017 13.337 180.013 7.36923Z" fill="black"/>
</g>
<defs>
<clipPath id="clip0_2823_36821">
<rect width="190" height="38.5905" fill="white"/>
</clipPath>
</defs>
</svg>
