<svg width="190" height="41" viewBox="0 0 190 41" fill="none" xmlns="http://www.w3.org/2000/svg">
<path d="M53.1665 11.1764L50.0482 23.1576L46.93 11.1764H43.7894L44.5159 13.747L41.7776 23.56L38.7824 11.1764H35.7647L40.0118 26.8235H43.32L45.8682 18.4523L48.2488 26.8235H51.5459L56.0165 11.1764H53.1665ZM84.8965 15.7141C84.2144 15.5563 83.5176 15.4701 82.8176 15.457C79.0176 15.457 76.9388 17.9941 76.9388 21.7158C76.9388 25.4153 79.0176 27.1029 81.4653 27.1029C82.7666 27.0605 84.02 26.6022 85.0418 25.7953V26.8235H87.6459V11.1764H84.8965V15.7141ZM84.8965 23.627C84.0023 24.4429 83.1641 24.89 82.2812 24.89C80.7612 24.89 79.7888 23.8841 79.7888 21.5258C79.7888 18.9776 80.9959 17.6476 83.0971 17.6476C83.7118 17.6476 84.3265 17.7706 84.8853 17.9941V23.627H84.8965ZM71.7529 17.547H71.6524V15.7141H69.0818V26.8235H71.8424V20.207C72.7029 18.5753 73.7535 18.0388 75.5082 18.0388H75.7876V15.647C75.5389 15.6196 75.289 15.6046 75.0388 15.6023C73.5412 15.6023 72.5129 16.1835 71.7529 17.5582V17.547ZM164.674 15.4347C160.874 15.4347 159.075 17.8935 159.075 21.28C159.075 24.6553 160.863 27.0917 164.674 27.0917C168.485 27.0917 170.274 24.6553 170.274 21.28C170.274 17.8935 168.452 15.4347 164.663 15.4347H164.674ZM164.674 24.8676C162.886 24.8676 161.925 23.7053 161.925 21.28C161.925 18.8435 162.875 17.6811 164.674 17.6811C166.462 17.6811 167.401 18.8435 167.401 21.28C167.401 23.7053 166.462 24.8676 164.663 24.8676H164.674ZM186.044 15.4347C184.859 15.4347 183.495 16.0829 182.266 16.91L181.931 17.1223C181.361 15.8817 180.187 15.4458 178.902 15.4458C177.717 15.4458 176.365 16.0494 175.124 16.8653V15.7141H172.509V26.8235H175.281V18.8547C176.138 18.2358 177.145 17.8576 178.198 17.7594C179.103 17.7594 179.673 18.2511 179.673 19.8158V26.8235H182.422V18.8882C183.451 18.2176 184.546 17.7706 185.328 17.7706C186.245 17.7706 186.804 18.2511 186.804 19.827V26.8235H189.553V19.1564C189.553 17.0106 188.279 15.4458 186.032 15.4458L186.044 15.4347ZM61.2694 15.4347C57.4694 15.4347 55.6812 17.8935 55.6812 21.28C55.6812 24.6553 57.4694 27.0917 61.2694 27.0917C65.0694 27.0917 66.88 24.6553 66.88 21.28C66.88 17.8935 65.0471 15.4347 61.2582 15.4347H61.2694ZM61.2694 24.8676C59.4812 24.8676 58.52 23.7053 58.52 21.28C58.52 18.8435 59.4812 17.6811 61.2806 17.6811C63.0688 17.6811 64.0076 18.8435 64.0076 21.28C64.0076 23.7053 63.0576 24.8676 61.2582 24.8676H61.2694ZM106.322 17.5358H106.232V15.7141H103.651V26.8235H106.4V20.207C107.261 18.5753 108.311 18.0388 110.066 18.0388H110.345V15.647C110.097 15.6196 109.847 15.6046 109.596 15.6023C108.11 15.6023 107.082 16.1835 106.311 17.5582H106.322V17.5358ZM96.1735 11.1764H91.0547V26.8235H94.0053V21.3806H96.1624C99.5041 21.3806 101.929 19.5811 101.929 16.217C101.929 12.8641 99.5041 11.1764 96.1624 11.1764H96.1735ZM96.1959 19.0894H94.0053V13.49H96.1847C97.9729 13.49 98.8447 14.4735 98.8447 16.217C98.8447 17.9717 98.0288 19.0894 96.1847 19.0894H96.1959ZM136.454 18.8323C136.454 17.9941 137.37 17.67 138.354 17.67C139.393 17.6811 140.432 17.8488 141.427 18.1506V15.8706C140.355 15.5677 139.244 15.4246 138.13 15.4458C135.47 15.4458 133.604 16.7088 133.604 18.7653C133.604 22.7553 139.102 21.727 139.102 23.6717C139.102 24.6217 138.242 24.8788 136.979 24.8788C136.085 24.8788 134.665 24.5435 133.637 24.1747V26.4435C134.669 26.8559 135.767 27.0793 136.878 27.1029C139.471 27.1029 141.941 26.3317 141.941 23.56C141.975 19.7041 136.465 20.6988 136.465 18.8323H136.454ZM116.895 15.4458C113.341 15.4458 111.496 18.2064 111.496 21.2129C111.496 25.3482 113.665 27.1029 117.196 27.1029C118.581 27.1059 119.958 26.8909 121.276 26.4658V24.1747C120.125 24.5994 119.074 24.8564 117.956 24.8564C115.9 24.8564 114.525 24.2976 114.458 21.8723H121.566C121.634 21.3247 121.667 20.777 121.656 20.2406C121.656 17.8935 120.415 15.4458 116.884 15.4458H116.895ZM114.481 20.0506C114.648 18.5082 115.486 17.5247 116.861 17.5247C118.336 17.5247 118.784 18.6982 118.784 20.0506H114.481ZM126.439 18.8323C126.439 17.9941 127.345 17.67 128.328 17.67C129.368 17.6811 130.407 17.8488 131.402 18.1506V15.8706C130.333 15.5688 129.226 15.4257 128.116 15.4458C125.456 15.4458 123.578 16.7088 123.578 18.7653C123.578 22.7553 129.088 21.727 129.088 23.6717C129.088 24.6217 128.216 24.8788 126.965 24.8788C126.071 24.8788 124.651 24.5435 123.612 24.1747V26.4435C124.644 26.8562 125.742 27.0795 126.853 27.1029C129.446 27.1029 131.927 26.3317 131.927 23.56C131.949 19.7041 126.439 20.6988 126.439 18.8323ZM150.994 21.1794C150.994 18.5753 152.414 17.6923 154.101 17.6923C155.152 17.7258 156.202 17.9382 157.186 18.3294V15.9823C156.182 15.6208 155.123 15.4392 154.056 15.4458C150.391 15.4458 148.122 17.6811 148.122 21.3135C148.122 24.7447 149.754 27.1029 153.889 27.1029C155.196 27.1029 156.214 26.8458 157.331 26.4658V24.1858C156.068 24.6664 155.096 24.8564 154.235 24.8564C152.414 24.8564 150.994 24.0182 150.994 21.1682V21.1794ZM143.796 26.8235H146.557V23.9735H143.796V26.8235ZM1.92235 17.8823C1.92235 22.8782 4.82824 27.1811 9.03059 29.2264L3.01765 12.7523C2.29562 14.3662 1.92239 16.1143 1.92235 17.8823ZM14.5294 30.4894C15.9935 30.4894 17.4018 30.2323 18.7206 29.7741L18.6312 29.6064L14.7529 18.9888L10.9753 29.9753C12.0929 30.3106 13.2888 30.4894 14.5294 30.4894ZM16.2618 11.97L20.8218 25.527L22.0847 21.3247C22.6212 19.5811 23.0347 18.3294 23.0347 17.2453C23.0347 15.6806 22.4759 14.6076 22.0065 13.7806C21.3582 12.73 20.7659 11.847 20.7659 10.8188C20.7659 9.65644 21.6376 8.58349 22.8894 8.58349H23.0459C20.7229 6.45092 17.6828 5.27001 14.5294 5.27526C12.4414 5.27487 10.3861 5.79354 8.54834 6.78461C6.71057 7.77568 5.14799 9.20807 4.00118 10.9529L4.80588 10.9753C6.12471 10.9753 8.15882 10.8076 8.15882 10.8076C8.85176 10.7741 8.93 11.7688 8.24824 11.847C8.24824 11.847 7.56647 11.9364 6.79529 11.97L11.4 25.6276L14.1606 17.357L12.1935 11.97C11.7529 11.9457 11.3131 11.9084 10.8747 11.8582C10.1929 11.8135 10.2712 10.7741 10.9529 10.8076C10.9529 10.8076 13.0318 10.9753 14.2724 10.9753C15.5912 10.9753 17.6253 10.8076 17.6253 10.8076C18.3071 10.7741 18.3965 11.7688 17.7147 11.847C17.7147 11.847 17.0329 11.9253 16.2618 11.97ZM20.8665 28.7794C22.7737 27.6704 24.3565 26.0804 25.4567 24.1682C26.557 22.256 27.1362 20.0885 27.1365 17.8823C27.1365 15.6917 26.5776 13.6353 25.5941 11.8358C25.7938 13.8155 25.4941 15.8137 24.7224 17.6476L20.8665 28.7794ZM14.5294 32.4117C10.676 32.4117 6.98036 30.881 4.25557 28.1562C1.53077 25.4314 0 21.7358 0 17.8823C0 14.0289 1.53077 10.3333 4.25557 7.60847C6.98036 4.88368 10.676 3.35291 14.5294 3.35291C18.3829 3.35291 22.0785 4.88368 24.8033 7.60847C27.5281 10.3333 29.0588 14.0289 29.0588 17.8823C29.0588 21.7358 27.5281 25.4314 24.8033 28.1562C22.0785 30.881 18.3829 32.4117 14.5294 32.4117Z" fill="black"/>
</svg>
